# xmcd
#
# Track frame offsets:
#	150
#	23696
#	38851
#	63678
#	78443
#	96213
#	113964
#	125283
#	148741
#	169199
#	189657
#	207471
#	222162
#	242201
#	267403
#
# Disc length: 3797 seconds
#
# Revision: 0
# Processed by: cddbd v1.5.2PL0 Copyright (c) Steve Scherf et al.
# Submitted via: dBpowerAMP V4.0
#
DISCID=e20ed30f
DTITLE=bhgzugfvuzhj - bgzu
DYEAR=2007
DGENRE=Country
TTITLE0=njhk
TTITLE1=,mkln
TTITLE2=,pkojuivg
TTITLE3=mjigbzh 
TTITLE4=vrdtxsxcghnjmk
TTITLE5=mgfdsasfghj
TTITLE6=ö.lkjhgfdsyx
TTITLE7=ölkjght456zgv
TTITLE8=ölökjhg
TTITLE9=poiuzfnm
TTITLE10=oiufvbnm
TTITLE11=ölpoiuztfn
TTITLE12=,öüpjuibng
TTITLE13=mji hzun
TTITLE14=
EXTD=bitch
EXTT0=
EXTT1=
EXTT2=
EXTT3=
EXTT4=
EXTT5=
EXTT6=
EXTT7=
EXTT8=
EXTT9=
EXTT10=
EXTT11=
EXTT12=
EXTT13=
EXTT14=
PLAYORDER=
